<?xml version="1.0" encoding="UTF-8"?>
<svg width="943px" height="1253px" viewBox="0 0 943 1253" version="1.1" xmlns="http://www.w3.org/2000/svg" xmlns:xlink="http://www.w3.org/1999/xlink">
    <!-- Generator: Sketch 50.2 (55047) - http://www.bohemiancoding.com/sketch -->
    <title>black</title>
    <desc>Created with Sketch.</desc>
    <defs></defs>
    <g id="black" stroke="none" stroke-width="1" fill="none" fill-rule="evenodd">
        <g id="a-person/bust" transform="translate(47.000000, 40.000000)" fill="#000000">
            <g id="body/Tee-1" transform="translate(0.000000, 459.000000)">
                <path d="M301.2356,63.5642 C306.3216,63.3432 311.5076,64.1662 316.5816,64.6652 C317.0236,64.7082 317.1916,65.3902 316.6936,65.4942 C307.61285,67.3912 298.631631,69.98645 289.713098,72.6220867 L285.8946,73.7522 C275.8376,76.7272 266.0756,79.7962 256.3396,83.7642 C236.9356,91.6722 218.5066,102.3462 201.5456,114.6092 C136.2336,161.8302 88.9636,233.3242 59.1336,307.3452 C51.0326,327.4472 44.1686,348.0492 38.6086,368.9982 C37.2566,374.0952 35.9846,379.2122 34.7786,384.3452 C34.4246,385.8502 32.8816,389.7042 33.7276,391.2442 C34.4756,392.6052 37.3836,393.4462 38.7346,394.1542 L43.2957161,396.5192 C52.1925923,401.104634 67.0124511,408.641838 68.4986,409.3762 L70.8164118,410.517491 C108.727057,429.10257 149.23424,444.86246 191.8956,445.9532 L192.2296,442.3102 C194.1316,422.1692 196.6276,401.9212 202.0756,382.3992 C202.3686,381.3502 203.7036,381.7042 203.8256,382.6362 C206.8606,405.7472 205.8906,429.0382 204.8316,452.2562 C202.9566,493.3782 200.4666,534.4772 198.2536,575.5832 C197.1456,596.1462 195.7136,616.6952 194.4206,637.2472 C193.1256,657.8402 192.7066,678.9282 189.7496,699.3512 C189.0906,703.9032 183.7586,706.3792 179.7206,705.8992 C175.2526,705.3672 171.8156,701.4322 171.7946,696.9212 C171.7406,685.0232 173.2356,672.9852 174.0666,661.1172 C174.8556,649.8412 175.7026,638.5712 176.5706,627.3012 C179.7426,586.1702 183.3916,545.0872 186.7666,503.9742 C187.9626,489.3922 189.2546,474.8232 190.5846,460.2552 C145.3916,458.7982 103.1706,442.0592 62.8926,422.5012 C62.3096,435.7382 60.9016,448.9512 59.5386,462.1332 C55.7336,498.9192 52.3786,535.6912 49.8676,572.5912 C48.5996,591.2282 47.6766,609.8882 46.8726,628.5502 C46.4776,637.7222 46.1556,646.8962 45.9086,656.0732 C45.8259333,659.131867 45.7512667,662.190978 45.6851926,665.250237 L45.5477972,672.258652 C45.4353817,676.699137 44.9839696,680.812439 41.2476,684.0452 C37.4526,687.3282 32.3266,687.5032 28.5706,684.0452 C23.5426,679.4152 24.4316,673.1072 24.5806,666.8892 C24.7046,661.6442 24.8536,656.4002 25.0266,651.1572 C25.3736,640.6702 25.8166,630.1862 26.3556,619.7072 C28.241729,583.071394 32.0102722,546.581685 36.935272,510.23898 L38.8578186,496.209872 C42.4480913,470.129757 46.3897176,443.456435 54.4156,418.3332 C51.2906,416.7792 48.1746,415.2142 45.0706,413.6422 C39.5646,410.8542 33.8716,408.2382 28.5196,405.1612 C24.2736,402.7202 20.6116,399.3722 19.4296,394.4312 C18.1113714,388.926114 20.1271412,382.904839 21.4662971,377.535265 L21.5826,377.0632 C22.8956,371.6552 24.3096,366.2712 25.8016,360.9102 C31.8516,339.1712 39.3326,317.8562 48.0876,297.0612 C65.6176,255.4292 88.2446,215.8782 115.8836,180.1172 C140.7626,147.9272 170.1526,118.7352 204.5986,96.8412 C221.4386,86.1372 239.3846,77.3482 258.3636,71.1342 C267.2346,68.2302 276.8866,65.7042 286.1746,64.6642 C291.1846,64.1042 296.2016,63.7832 301.2356,63.5642 Z M391.3492,-2.4055 C397.3932,-8.8955 409.4012,-2.1795 406.4992,6.4145 C399.6732,26.6335 388.8032,45.0765 371.8392,58.3625 C355.8932,70.8525 336.8782,78.9635 316.4002,77.2325 C316.2422,77.2185 316.1052,77.1785 315.9842,77.1215 L317.74893,79.5151537 C331.603694,98.2561789 346.219833,116.738337 363.8362,132.0565 C399.7292,163.2675 448.5992,180.1015 495.7892,168.1265 C532.9172,158.7055 565.6272,129.3465 575.2472,91.9305 C573.8682,92.5485 572.2292,92.7595 570.4302,92.3685 C562.7332,90.6975 555.1132,82.6025 550.1492,76.7985 C544.7792,70.5195 540.5852,63.7395 537.5112,56.0755 C531.8852,42.0495 530.0812,23.9905 537.7632,10.4035 C538.7112,8.7285 540.8972,9.6675 541.0832,11.3025 L541.375676,13.8546279 C542.856684,26.5879727 544.70145,38.905375 550.7052,50.5135 C553.6432,56.1935 557.1652,61.7375 561.4522,66.4945 C563.7462,69.0395 566.2332,71.4715 568.9182,73.6055 C571.534671,75.6845588 574.701231,77.1878391 577.046434,79.5734935 L577.4762,80.0315 L577.4882,79.9495 C578.0812,74.9085 581.6162,72.6875 585.0752,72.8265 C588.422619,72.9610161 592.354392,74.4344109 593.877066,75.1401693 L594.021192,75.2081083 C617.373176,86.4178617 638.880511,101.029065 659.1202,117.2395 C700.9762,150.7635 732.3372,194.5885 747.5322,246.1965 C754.990038,271.525149 759.269497,297.624232 763.786832,323.601596 L766.567852,339.517779 C770.784257,363.49949 775.494097,387.952879 785.0122,410.2615 C787.4742,416.0325 785.5762,421.4445 779.5392,423.7135 C772.0012,426.5475 764.4352,429.2915 756.8572,432.0015 C760.5782,447.9645 762.8472,464.4805 765.6352,480.5225 C771.5612,514.6215 778.8222,548.5025 785.0482,582.5565 C788.2312,599.9685 791.1032,617.4385 794.2832,634.8525 C795.8142,643.2385 797.4122,651.6125 798.9662,659.9945 C799.8032,664.5145 800.5622,669.0485 801.3612,673.5745 L801.500252,674.325603 C801.95793,676.713325 802.533057,679.183024 801.8762,681.5725 C801.1272,684.2975 799.0002,686.2225 797.1012,688.1765 C795.5382,689.7855 793.2792,689.7955 791.3642,688.9175 L790.734327,688.626096 C787.314042,687.02639 784.634657,685.430671 783.4212,681.5725 C782.6532,679.1295 782.3762,676.3775 781.8742,673.8605 C780.9112,669.0355 779.9982,664.2045 779.1362,659.3595 C777.4122,649.6665 775.7282,639.9665 774.0842,630.2585 L772.548651,621.168351 C767.278319,589.839243 762.273347,558.319618 759.7432,526.6595 C758.6208,512.6139 757.4312,498.58046 756.23072,484.544332 L755.3292,474.0165 C754.1892,460.6915 752.7962,447.0295 752.5992,433.5245 L748.067825,435.13325 L725.9572,442.9495 C720.4752,444.8865 713.4952,448.8565 707.5952,448.1345 C704.7072,447.7805 702.5052,446.8715 700.8052,445.2195 C702.8412,473.9525 705.5972,502.6355 709.2702,531.1725 C712.6122,557.1385 716.3172,583.0695 720.6932,608.8825 C722.8602,621.6645 725.0872,634.4345 727.5062,647.1705 C728.7152,653.5395 729.9632,659.8995 731.2492,666.2535 C731.8902,669.4235 732.6532,672.5965 733.1532,675.7925 C733.7252,679.4525 732.7172,681.7045 730.6722,684.7155 C728.9932,687.1885 725.6342,688.4585 722.9112,686.7515 C719.3052,684.4885 717.4242,682.5285 716.3632,678.4075 C715.3992,674.6645 714.8132,670.7565 714.0672,666.9655 C712.6902,659.9675 711.3592,652.9615 710.0742,645.9455 C707.3872,631.2735 704.9102,616.5655 702.6982,601.8135 C694.9032,549.8445 689.9572,497.4405 687.4592,444.9515 C686.2262,419.0545 685.8452,393.1345 686.0642,367.2105 C686.1762,353.9225 686.6102,340.5965 687.5502,327.3415 C688.5022,313.9245 690.4822,300.7755 692.2502,287.4875 C692.3122,287.0195 692.9722,286.9925 693.0002,287.4875 C693.8372,302.3855 695.1492,317.2665 695.7922,332.2035 C696.4062,346.4565 696.6752,360.7315 697.1632,374.9895 C697.8042,393.7315 698.6932,412.4845 699.8702,431.2245 C702.0012,428.8935 705.2132,427.5495 708.4272,428.0745 C713.0832,427.0975 718.0952,424.6545 722.5342,423.1715 L739.2682,417.5815 C748.0652,414.6435 756.8622,411.7255 765.6902,408.8955 C757.797376,382.342147 752.390601,355.393137 747.773782,328.051212 L745.714766,315.754626 C741.639065,291.550591 737.244581,267.335119 729.8622,243.8965 C722.1012,219.2545 710.4872,196.3445 695.0802,175.5975 C679.8932,155.1505 661.4162,137.1465 642.3922,120.3065 C626.1052,105.8905 608.6822,92.8745 592.0702,78.8545 C592.2442,79.7835 592.2812,80.8065 592.1282,81.9305 C588.5962,107.7805 575.1112,131.8535 556.3182,149.7585 C518.5632,185.7295 462.6762,193.1925 414.3542,176.3245 C367.6112,160.0085 326.2842,121.3665 311.6832,73.5495 C311.4332,72.7315 312.5292,72.4065 312.9692,73.0075 C313.7792,74.1175 314.5932,75.2275 315.4082,76.3375 C315.3532,75.8965 315.5822,75.4165 316.1262,75.2065 C333.1622,68.6285 349.8912,59.2995 362.6612,46.1025 C368.8852,39.6695 374.3172,32.3815 378.6052,24.5215 C380.6592,20.7565 382.5042,16.8575 383.9762,12.8285 L384.350296,11.786133 C386.134209,6.73918678 387.625039,1.59275806 391.3492,-2.4055 Z" id="ðŸ–-Ink"></path>
            </g>
            <g id="head/Short-4" transform="translate(225.000000, 0.000000)">
                <path d="M228.28,69.6251 C243.89,66.4751 259.919,64.5151 275.86,65.1051 L277.089049,65.1528353 C289.08318,65.6321989 304.2728,66.6926 314.736,73.6671 C315.338,73.0631 316.306,72.7531 317.184,73.1721 C329.618,79.1071 343.294,83.3981 356.386,87.6621 C369.418,91.9051 382.938,94.7061 396.597,95.8351 C401.736,96.2601 406.134,101.8091 402.88,106.7861 C402.106,107.9721 401.352,109.1701 400.601,110.3711 C401.857,110.2401 403.113,110.1051 404.369,109.9781 C408.502,109.5621 412.631,113.9731 412.386,117.9971 C412.233,120.5281 411.96,123.0291 411.556,125.5001 C413.13,125.4671 414.695,125.7031 416.207,126.3421 C423.863,129.5751 423.33,138.6941 422.757,145.6321 C421.963,155.2601 418.362,165.4581 411.676,172.6641 C416.668,177.8491 420.202,184.0411 422.31,191.3951 C423.839,196.7651 424.69,202.4851 424.27,208.0751 L424.136106,209.748718 C423.616704,215.81496 422.584043,222.531057 418.22,226.8951 C415.98,229.1451 413.22,229.9651 410.589,229.7051 C412.18,243.6851 413.2,257.7451 414.16,271.7551 L414.610164,278.451254 C416.751634,310.831125 418.360968,343.421874 417.94,375.8551 C417.549,406.1651 411.56,435.5851 392.97,460.1951 C376.039,482.6051 351.73,499.1251 324.23,505.4051 C309.41,508.7951 294.28,509.0351 279.28,506.8751 C272.009,505.8251 264.69,504.2151 257.789,501.6751 C250.15,498.8551 244.66,494.7051 239.52,488.4851 C237.089,485.5351 238.259,479.2551 243.1,479.8451 C250.421364,480.732827 257.104917,481.802786 264.123901,483.968204 L265.129,484.2851 C272.12,486.5251 279.36,488.1951 286.669,488.9051 C301.64,490.3551 316.839,488.8951 331.18,484.3551 C354.53,476.9551 374.64,460.4651 387.53,439.7451 C402.83,415.1851 404.56,387.3051 404.339,359.0651 C404.102158,328.076679 403.094357,297.070308 401.449091,266.114008 L401.169,260.9551 C400.299,245.0251 399.459,229.0851 398.72,213.1451 C398.49,208.1451 398.14,203.1051 397.509,198.1151 C391.74,194.7351 386.57,190.0751 383.2,184.3251 C376.43,187.1251 369.31,189.1451 362.759,190.7551 C347.585,194.4871 331.831,195.3931 316.386,193.0561 C312.22,194.7771 307.971,196.2901 303.657,197.5921 C302.491,198.1091 301.325,198.6171 300.16,199.1151 C289.759,203.5651 279.209,207.3351 268.23,210.0951 L265.532832,210.7677 C259.754979,212.192021 253.479091,213.594645 247.33,214.0351 C246.32,214.4251 245.23,214.7551 244.039,215.0451 C238.44,216.4051 232.629,216.8351 226.89,216.3551 C221.299,215.8851 217.259,210.2351 220.339,204.9451 C222.589,201.0851 224.86,197.2351 227.15,193.3951 C219.18,196.7151 210.95,199.4751 202.65,201.8151 C194.27,204.1751 185.77,206.1651 177.259,207.9951 C172.709,208.9651 168.14,209.8251 163.6,210.7951 C160.35,211.4851 155.36,211.8451 152.709,213.9851 C149.78,216.3351 148.95,221.8151 147.839,225.1951 C146.379,229.5851 145.009,233.9951 143.759,238.4551 C141.27,247.3551 139.23,256.3851 137.65,265.5051 C136.07,274.6351 135.009,283.8551 134.419,293.1051 C133.83,302.3451 134.089,311.6451 133.14,320.8451 C132.629,325.7251 127.39,328.2351 123.52,324.8251 C123.066,324.4251 122.608444,324.020656 122.155333,323.611767 L121.48,322.9951 C118.169,319.9951 114.959,316.8151 112.31,313.2351 C111.83,312.5751 111.37,311.8851 110.94,311.1851 C110.87,311.1851 110.81,311.1651 110.74,311.1151 L110.005491,310.562389 C101.917841,304.542573 88.4061,296.6944 80.52,306.6951 C78.007037,309.881026 76.7204252,313.937734 75.652584,317.851461 L73.7788699,324.855888 C72.5669111,329.428433 71.4263333,334.026433 70.759,338.7051 C69.249,349.1851 70.009,361.2651 77.22,369.6651 C80.1,373.0251 84.07,375.4251 88.499,376.0551 C90.97,376.3951 93.41,375.9751 95.86,375.6651 C98.35,375.3551 100.749,375.8551 103.24,375.6151 C107.2,375.2251 108.93,379.9651 107.45,382.9451 C106.65,384.5451 105.709,385.9251 104.64,387.0951 C105.499,387.8351 106.32,388.6351 107.11,389.4751 C109.45,390.2251 111.549,391.8351 113.12,393.9651 C114.39,395.6851 115.049,397.5551 115.16,399.5251 C115.299,400.0151 115.419,400.5151 115.53,401.0251 L117.675384,404.50702 C118.14724,405.2707 118.6174,406.0251 119.089,406.7651 C124.549,415.3651 130.61,422.6451 138.14,429.5051 C145.39,436.1051 153.259,442.0151 160.07,449.0951 L160.87233,449.935719 C167.221992,456.626658 173.915,464.726181 171.43,474.4551 C170.79,476.9551 167.299,478.7551 165.02,477.0651 C157.69,471.6251 153.999,463.0051 147.78,456.4051 C141.379,449.6051 134.289,443.4951 127.87,436.7151 C121.799,430.3151 117.009,423.0651 113.4,415.0851 C111.959,416.6751 109.86,417.8051 106.95,418.2451 C101.95,418.9951 97.289,416.0651 95.11,411.7351 C93.709,412.3551 92.28,412.9151 90.839,413.3551 C83.259,415.6751 78.49,407.2451 81.35,401.0151 C82.879,397.6751 84.789,394.7751 87.16,392.3351 C79.749,391.3151 72.209,387.4851 67.339,382.7051 C55.12,370.6951 53.44,352.6451 56.19,336.5951 C57.65,328.0851 60.169,319.4751 63.44,311.4851 C64.009,310.0951 64.62,308.6951 65.289,307.3151 C64.919,307.3051 64.539,307.1451 64.299,306.8351 C62.089,303.8151 59.4,301.3451 57.759,297.9651 C56.249,294.8651 54.57,291.7251 53.379,288.4951 C50.93,281.8851 49.73,274.4251 48.93,267.4351 C47.28,253.1251 47.919,238.9051 50.11,224.6851 C53.839,200.4651 62.847,177.2871 76.118,156.9491 C75.3954286,156.569386 74.7029796,156.111059 74.057656,155.569083 L73.739,155.2911 L73.221,154.8231 C69.434,151.3961 69.761,144.9731 73.221,141.5021 L74.313776,140.406708 C75.69752,139.03202 76.8908,137.9429 79.126,136.4461 C79.456,136.2251 79.793,136.0171 80.134,135.8231 C78.964,133.6611 78.558,131.1331 79.373,128.3441 C82.213,118.6281 96.193,118.9721 105.054,123.2091 C114.857,114.4601 125.727,106.8651 137.509,100.7151 C165.57,86.0751 197.299,75.8651 228.28,69.6251 Z M83.2303,325.5251 C88.4703,323.8151 95.4303,327.4051 100.1403,329.5651 C106.1103,332.3051 111.1903,336.3551 116.1103,340.6351 C118.5603,342.7751 118.9993,346.2751 118.3903,349.2651 C118.3293,349.5651 118.2703,349.8751 118.1993,350.1851 C117.5493,353.3751 113.9893,355.8851 110.8393,355.7951 C104.2493,355.6151 101.1103,349.9251 97.3793,345.1051 C96.9403,345.8851 96.3903,346.6051 95.7093,347.1451 L95.2494503,347.505047 C93.7013661,348.68386 91.9947545,349.626009 89.9493,349.5351 C88.4993,349.4651 87.1103,349.0951 85.8293,348.4251 C82.6293,346.7351 81.2203,342.5951 82.0893,339.2251 C82.6293,337.1051 83.8693,335.4451 85.4893,334.2951 L84.885427,333.882073 C83.5933615,332.982864 82.4149255,332.034968 81.4965498,330.636103 L81.2893,330.3051 L81.3693,330.3051 C80.3693,328.5851 81.0203,326.2451 83.2303,325.5251 Z" id="ðŸ–-Ink"></path>
            </g>
            <g id="face/Eating-Happy" transform="translate(384.000000, 186.000000)">
                <path d="M126.149889,196.292214 C131.744002,187.090211 143.667824,209.632062 144.934713,213.508101 C146.056772,216.941676 146.797464,220.458991 147.173947,224.017014 C151.510872,224.989057 156.01445,224.990851 160.458249,224.139019 C167.062878,222.871873 171.100325,219.321223 176.840498,216.27243 C180.80528,214.165719 185.802087,216.636182 187.863888,220.130132 C190.289134,224.242684 188.744036,228.511189 185.554301,231.577101 C179.505319,237.390824 167.603613,238.726425 159.707644,237.182493 C155.183676,236.298273 151.03744,234.601718 147.375949,232.136142 C147.351679,232.596242 147.335471,233.056465 147.299179,233.515885 L147.229265,234.312833 C146.622587,240.760805 144.850336,248.868644 139.841994,253.064289 C131.627701,259.946669 121.490148,246.710667 129.471775,239.836072 L129.719209,239.629726 C134.680373,235.621175 135.762718,224.866141 135.495556,218.942309 C135.320385,215.075928 134.616096,211.160035 133.395334,207.477648 L133.144299,206.744368 C132.776832,205.704151 128.770187,195.83676 127.322375,197.093402 L127.253261,197.164261 C126.656242,197.877109 125.691416,197.04675 126.149889,196.292214 Z M170.814304,144.367155 C178.365682,148.9572 189.871664,159.660291 181.748119,171.039573 C172.185929,181.073062 158.418535,169.568982 151.634201,164.366134 C145.343449,160.333898 138.275437,170.704507 144.112,175.412823 C193.135736,211.708059 213.030606,145.567387 174.633685,138.970386 C170.406047,138.243425 168.835891,142.947174 170.814304,144.367155 Z M90.1787,101.9403 C97.5587,100.6313 105.1187,102.4663 111.2257,106.7843 L111.688541,107.117181 C117.57206,111.42005 124.154854,118.975479 120.7787,126.3923 C119.4237,129.3703 115.3657,129.8373 112.7907,128.4873 C108.5037,126.2393 107.7267,120.7083 103.9017,117.6473 C100.7647,115.1383 96.5407,113.6163 92.5007,113.9833 C83.0097,114.8453 77.1717,124.2063 74.2237,132.2733 C73.8467,133.3053 72.3317,133.7063 71.7397,132.5983 C64.7887,119.6063 77.0927,104.2623 90.1787,101.9403 Z M208.3893,97.0373 C222.5263,95.8723 239.0733,110.5283 235.3513,125.4503 C233.5663,132.6103 222.9453,132.4053 221.0573,125.4503 C220.0183,121.6233 220.1223,118.2373 217.3673,115.0593 C215.0933,112.4353 211.8623,110.9113 208.3893,111.1453 C204.5613,111.4033 201.0303,113.3163 198.3473,116.0053 C195.9243,118.4333 194.4753,121.9863 191.9653,124.1353 C191.3473,124.6633 190.5203,124.6973 189.9103,124.1353 C185.5903,120.1523 188.1833,111.8603 190.9223,107.7023 C194.8423,101.7523 201.2253,97.6283 208.3893,97.0373 Z M63.2578,75.4751 C72.3268,67.4471 88.8058,59.6941 101.0348,63.6451 C108.0658,65.9161 111.1308,77.2451 103.2818,80.8361 C94.1928,84.9941 83.7138,83.3021 74.4628,87.6121 C70.5778,89.4231 66.9238,91.6861 64.2188,95.0051 C62.0878,97.6211 59.9198,101.0631 56.8378,102.5711 C56.0278,102.9681 54.9308,102.9781 54.2818,102.2421 C47.5258,94.6001 57.3588,80.6961 63.2578,75.4751 Z M192.8016,63.2466 C198.4066,61.6736 204.6246,61.7056 210.3186,62.6936 C216.0106,63.6816 221.7896,66.0406 226.4366,69.4816 L226.976058,69.8845105 C232.049154,73.7073503 238.103014,79.2694621 237.7786,86.0416 C237.5076,91.6966 231.5586,95.5216 226.4226,92.5576 C222.2356,90.1406 220.2656,85.2986 216.7206,82.0746 C213.7956,79.4136 210.3596,77.3156 206.6936,75.8456 C202.6216,74.2126 198.5426,73.4476 194.1726,73.3746 C190.8076,73.3186 187.4226,74.4226 184.1206,74.7756 C184.3926,75.3336 181.7826,75.0736 180.2866,74.5786 C179.1786,74.1066 179.1726,72.7056 179.5566,71.7966 C181.4616,67.2936 188.3926,64.4826 192.8016,63.2466 Z" id="ðŸ–-Ink"></path>
            </g>
            <g id="accessories/Glasses-2" transform="translate(272.000000, 241.000000)">
                <path d="M372.3111,95.4577 C360.1701,108.0027 339.9021,111.6027 323.7491,104.8747 C282.2731,87.5457 302.5741,33.4957 334.5611,18.9807 C338.5571,17.9847 343.8941,15.6217 348.7611,15.0857 C349.2011,14.8697 350.1591,15.4947 351.3201,14.9037 C386.5911,18.8417 394.6231,73.5937 372.3111,95.4577 M238.5331,98.6687 C224.9161,116.7297 199.6001,122.3017 178.9161,113.9057 C138.0541,97.8137 152.5471,49.8847 180.5041,31.0947 C239.5611,8.9037 263.9481,65.3677 238.5331,98.6687 M149.9531,58.6507 C149.9151,58.6327 149.8771,58.6237 149.8381,58.6057 C150.0541,58.5107 150.2701,58.4157 150.4851,58.3187 C150.4151,58.5017 150.3391,58.6827 150.2711,58.8657 C150.1651,58.7927 150.0721,58.7077 149.9531,58.6507 M400.4231,39.1277 C397.0891,39.1347 392.2731,39.6827 389.5131,41.9957 C382.7071,19.0427 357.5851,-2.2003 335.7371,13.2897 C318.5321,18.8227 305.7651,31.0937 298.5091,47.4077 C285.4261,39.6257 264.8541,42.9487 253.5091,53.2397 C246.0791,28.6887 227.7931,20.0917 206.0281,18.8227 C182.2721,14.9317 158.5941,38.0027 151.2061,56.5107 C145.0631,55.8117 135.8841,53.8567 130.1051,57.6477 C92.5981,47.8117 27.0231,42.3887 19.3981,47.8537 C13.9641,49.9387 10.9821,62.7647 18.5721,63.4567 C25.1861,62.5177 17.8001,54.0587 24.4671,53.1357 C59.9901,50.9337 94.4751,58.0877 129.6221,61.0897 C132.7601,65.3107 142.8991,66.7227 148.3081,65.0267 C139.7891,96.4227 158.1791,117.7827 185.7341,124.1807 C228.4011,133.9817 265.5221,95.8137 254.3651,56.1137 C267.2901,49.6837 282.1571,49.9597 296.2371,53.3467 C272.7091,139.9367 412.1661,136.0517 390.3851,44.9627 C404.8801,52.1727 408.0281,40.5827 400.4231,39.1277" id="ðŸ–-Ink"></path>
            </g>
        </g>
    </g>
</svg>